<svg width="1029" height="193" viewBox="0 0 1029 193" fill="none" xmlns="http://www.w3.org/2000/svg">
<g opacity="0.1">
<path d="M291.148 192.36H481.378L291.148 0V192.36Z" fill="white"/>
<path d="M744.773 1.68994H526.562V50.4199H744.773V1.68994Z" fill="white"/>
<path d="M628.722 143.64H526.562V192.37H628.722V143.64Z" fill="white"/>
<path d="M744.773 71.6H526.562V122.44H744.773V71.6Z" fill="white"/>
<path d="M175.98 71.61L128.24 0L80.5 71.61H175.98Z" fill="white"/>
<path d="M46.61 122.45L0 192.36H256.48L209.87 122.45H46.61Z" fill="white"/>
<path d="M818.704 122.45L772.094 192.36H1028.57L981.974 122.45H818.704Z" fill="white"/>
<path d="M948.072 71.61L900.332 0L852.602 71.61H948.072Z" fill="white"/>
</g>
<path d="M69.77 174L85.824 140.374H86.1L102.2 174H94.794L92.126 168.158H79.752L77.176 174H69.77ZM81.914 163.19H90.01C88.492 159.74 87.02 156.244 86.008 153.346C85.042 155.646 83.294 160.062 81.914 163.19ZM127.24 174H107.414V140.88H114.498V168.066H127.24V174ZM153.708 146.814H140.598V154.726H151.638V160.568H140.598V174H133.514V140.88H153.708V146.814ZM154.178 174L170.232 140.374H170.508L186.608 174H179.202L176.534 168.158H164.16L161.584 174H154.178ZM166.322 163.19H174.418C172.9 159.74 171.428 156.244 170.416 153.346C169.45 155.646 167.702 160.062 166.322 163.19Z" fill="white"/>
</svg>
