<svg width="538" height="146" viewBox="0 0 538 146" fill="none" xmlns="http://www.w3.org/2000/svg">
<g clip-path="url(#clip0_1045_121)">
<g opacity="0.8">
<path d="M0 1.26953V142.73L143.05 1.26953H0Z" fill="white"/>
<path d="M168.097 144.36V2.90039L25.0469 144.36H168.097Z" fill="white"/>
<path d="M271.139 145.2C311.235 145.2 343.739 112.696 343.739 72.6C343.739 32.5041 311.235 0 271.139 0C231.043 0 198.539 32.5041 198.539 72.6C198.539 112.696 231.043 145.2 271.139 145.2Z" fill="white"/>
<path d="M537.21 1.30957H373.5V37.8696H537.21V1.30957Z" fill="white"/>
<path d="M537.21 107.8H373.5V144.36H537.21V107.8Z" fill="white"/>
<path d="M537.21 53.7598H373.5V91.9098H537.21V53.7598Z" fill="white"/>
</g>
</g>
<defs>
<clipPath id="clip0_1045_121">
<rect width="537.21" height="145.2" fill="white"/>
</clipPath>
</defs>
</svg>
